<svg width="97" height="24" viewBox="0 0 97 24" fill="none" xmlns="http://www.w3.org/2000/svg">
<g clip-path="url(#clip0_1_6)">
<path fill-rule="evenodd" clip-rule="evenodd" d="M8 5.33333H2V9.77777V14.2222H8V18.6667H14V14.2222V9.77777H8V5.33333Z" fill="#0D141C"/>
</g>
<path d="M38.741 18.77C37.445 18.77 36.335 18.488 35.411 17.924C34.487 17.354 33.776 16.562 33.278 15.548C32.786 14.534 32.54 13.358 32.54 12.02C32.54 10.682 32.786 9.506 33.278 8.492C33.776 7.478 34.487 6.689 35.411 6.125C36.335 5.555 37.445 5.27 38.741 5.27C40.235 5.27 41.48 5.645 42.476 6.395C43.472 7.139 44.171 8.144 44.573 9.41L42.386 10.013C42.134 9.167 41.705 8.507 41.099 8.033C40.493 7.553 39.707 7.313 38.741 7.313C37.871 7.313 37.145 7.508 36.563 7.898C35.987 8.288 35.552 8.837 35.258 9.545C34.97 10.247 34.823 11.072 34.817 12.02C34.817 12.968 34.961 13.796 35.249 14.504C35.543 15.206 35.981 15.752 36.563 16.142C37.145 16.532 37.871 16.727 38.741 16.727C39.707 16.727 40.493 16.487 41.099 16.007C41.705 15.527 42.134 14.867 42.386 14.027L44.573 14.63C44.171 15.896 43.472 16.904 42.476 17.654C41.48 18.398 40.235 18.77 38.741 18.77ZM49.2671 18.77C48.5651 18.77 47.9711 18.638 47.4851 18.374C46.9991 18.104 46.6301 17.747 46.3781 17.303C46.1321 16.859 46.0091 16.37 46.0091 15.836C46.0091 15.368 46.0871 14.948 46.2431 14.576C46.3991 14.198 46.6391 13.874 46.9631 13.604C47.2871 13.328 47.7071 13.103 48.2231 12.929C48.6131 12.803 49.0691 12.689 49.5911 12.587C50.1191 12.485 50.6891 12.392 51.3011 12.308C51.9191 12.218 52.5641 12.122 53.2361 12.02L52.4621 12.461C52.4681 11.789 52.3181 11.294 52.0121 10.976C51.7061 10.658 51.1901 10.499 50.4641 10.499C50.0261 10.499 49.6031 10.601 49.1951 10.805C48.7871 11.009 48.5021 11.36 48.3401 11.858L46.3601 11.237C46.6001 10.415 47.0561 9.755 47.7281 9.257C48.4061 8.759 49.3181 8.51 50.4641 8.51C51.3281 8.51 52.0871 8.651 52.7411 8.933C53.4011 9.215 53.8901 9.677 54.2081 10.319C54.3821 10.661 54.4871 11.012 54.5231 11.372C54.5591 11.726 54.5771 12.113 54.5771 12.533V18.5H52.6781V16.394L52.9931 16.736C52.5551 17.438 52.0421 17.954 51.4541 18.284C50.8721 18.608 50.1431 18.77 49.2671 18.77ZM49.6991 17.042C50.1911 17.042 50.6111 16.955 50.9591 16.781C51.3071 16.607 51.5831 16.394 51.7871 16.142C51.9971 15.89 52.1381 15.653 52.2101 15.431C52.3241 15.155 52.3871 14.84 52.3991 14.486C52.4171 14.126 52.4261 13.835 52.4261 13.613L53.0921 13.811C52.4381 13.913 51.8771 14.003 51.4091 14.081C50.9411 14.159 50.5391 14.234 50.2031 14.306C49.8671 14.372 49.5701 14.447 49.3121 14.531C49.0601 14.621 48.8471 14.726 48.6731 14.846C48.4991 14.966 48.3641 15.104 48.2681 15.26C48.1781 15.416 48.1331 15.599 48.1331 15.809C48.1331 16.049 48.1931 16.262 48.3131 16.448C48.4331 16.628 48.6071 16.772 48.8351 16.88C49.0691 16.988 49.3571 17.042 49.6991 17.042ZM56.9202 18.5V8.78H58.8372V11.147L58.6032 10.841C58.7232 10.517 58.8822 10.223 59.0802 9.959C59.2842 9.689 59.5272 9.467 59.8092 9.293C60.0492 9.131 60.3132 9.005 60.6012 8.915C60.8952 8.819 61.1952 8.762 61.5012 8.744C61.8072 8.72 62.1042 8.732 62.3922 8.78V10.805C62.1042 10.721 61.7712 10.694 61.3932 10.724C61.0212 10.754 60.6852 10.859 60.3852 11.039C60.0852 11.201 59.8392 11.408 59.6472 11.66C59.4612 11.912 59.3232 12.2 59.2332 12.524C59.1432 12.842 59.0982 13.187 59.0982 13.559V18.5H56.9202ZM68.7806 18.77C67.8326 18.77 67.0376 18.545 66.3956 18.095C65.7536 17.645 65.2706 17.033 64.9466 16.259C64.6226 15.479 64.4606 14.606 64.4606 13.64C64.4606 12.662 64.6226 11.786 64.9466 11.012C65.2706 10.238 65.7446 9.629 66.3686 9.185C66.9986 8.735 67.7756 8.51 68.6996 8.51C69.6176 8.51 70.4126 8.735 71.0846 9.185C71.7626 9.629 72.2876 10.238 72.6596 11.012C73.0316 11.78 73.2176 12.656 73.2176 13.64C73.2176 14.612 73.0346 15.485 72.6686 16.259C72.3026 17.033 71.7866 17.645 71.1206 18.095C70.4546 18.545 69.6746 18.77 68.7806 18.77ZM64.0916 18.5V5.54H66.2786V11.678H66.0086V18.5H64.0916ZM68.4476 16.826C69.0116 16.826 69.4766 16.685 69.8426 16.403C70.2086 16.121 70.4786 15.74 70.6526 15.26C70.8326 14.774 70.9226 14.234 70.9226 13.64C70.9226 13.052 70.8326 12.518 70.6526 12.038C70.4726 11.552 70.1936 11.168 69.8156 10.886C69.4376 10.598 68.9576 10.454 68.3756 10.454C67.8236 10.454 67.3736 10.589 67.0256 10.859C66.6776 11.123 66.4196 11.495 66.2516 11.975C66.0896 12.449 66.0086 13.004 66.0086 13.64C66.0086 14.27 66.0896 14.825 66.2516 15.305C66.4196 15.785 66.6806 16.16 67.0346 16.43C67.3946 16.694 67.8656 16.826 68.4476 16.826ZM81.9244 18.5V13.82C81.9244 13.514 81.9034 13.175 81.8614 12.803C81.8194 12.431 81.7204 12.074 81.5644 11.732C81.4144 11.384 81.1864 11.099 80.8804 10.877C80.5804 10.655 80.1724 10.544 79.6564 10.544C79.3804 10.544 79.1074 10.589 78.8374 10.679C78.5674 10.769 78.3214 10.925 78.0994 11.147C77.8834 11.363 77.7094 11.663 77.5774 12.047C77.4454 12.425 77.3794 12.911 77.3794 13.505L76.0924 12.956C76.0924 12.128 76.2514 11.378 76.5694 10.706C76.8934 10.034 77.3674 9.5 77.9914 9.104C78.6154 8.702 79.3834 8.501 80.2954 8.501C81.0154 8.501 81.6094 8.621 82.0774 8.861C82.5454 9.101 82.9174 9.407 83.1934 9.779C83.4694 10.151 83.6734 10.547 83.8054 10.967C83.9374 11.387 84.0214 11.786 84.0574 12.164C84.0994 12.536 84.1204 12.839 84.1204 13.073V18.5H81.9244ZM75.1834 18.5V8.78H77.1184V11.795H77.3794V18.5H75.1834ZM91.14 18.77C90.192 18.77 89.397 18.545 88.755 18.095C88.113 17.645 87.63 17.033 87.306 16.259C86.982 15.479 86.82 14.606 86.82 13.64C86.82 12.662 86.982 11.786 87.306 11.012C87.63 10.238 88.104 9.629 88.728 9.185C89.358 8.735 90.135 8.51 91.059 8.51C91.977 8.51 92.772 8.735 93.444 9.185C94.122 9.629 94.647 10.238 95.019 11.012C95.391 11.78 95.577 12.656 95.577 13.64C95.577 14.612 95.394 15.485 95.028 16.259C94.662 17.033 94.146 17.645 93.48 18.095C92.814 18.545 92.034 18.77 91.14 18.77ZM86.451 18.5V5.54H88.638V11.678H88.368V18.5H86.451ZM90.807 16.826C91.371 16.826 91.836 16.685 92.202 16.403C92.568 16.121 92.838 15.74 93.012 15.26C93.192 14.774 93.282 14.234 93.282 13.64C93.282 13.052 93.192 12.518 93.012 12.038C92.832 11.552 92.553 11.168 92.175 10.886C91.797 10.598 91.317 10.454 90.735 10.454C90.183 10.454 89.733 10.589 89.385 10.859C89.037 11.123 88.779 11.495 88.611 11.975C88.449 12.449 88.368 13.004 88.368 13.64C88.368 14.27 88.449 14.825 88.611 15.305C88.779 15.785 89.04 16.16 89.394 16.43C89.754 16.694 90.225 16.826 90.807 16.826Z" fill="#0D141C"/>
<defs>
<clipPath id="clip0_1_6">
<rect width="16" height="16" fill="white" transform="translate(0 4)"/>
</clipPath>
</defs>
</svg>
